# Blender 4.0.0
# www.blender.org
mtllib 3.mtl
o Plane
v -1.738713 -0.400069 -0.376836
v 0.261287 -0.400069 -0.376836
v -1.738713 -0.400069 -2.376836
v 0.261287 -0.400069 -2.376836
vn -0.0000 1.0000 -0.0000
vt 0.000000 0.000000
vt 1.000000 0.000000
vt 1.000000 1.000000
vt 0.000000 1.000000
s 0
f 1/1/1 2/2/1 4/3/1 3/4/1
o Cube
v 0.227982 -0.397114 0.050081
v 0.227982 1.602886 0.050081
v 0.227982 -0.397114 -2.798758
v 0.227982 1.602886 -2.798758
v 0.432748 -0.397114 0.050081
v 0.432748 1.602886 0.050081
v 0.432748 -0.397114 -2.798758
v 0.432748 1.602886 -2.798758
vn -1.0000 -0.0000 -0.0000
vn -0.0000 -0.0000 -1.0000
vn 1.0000 -0.0000 -0.0000
vn -0.0000 -0.0000 1.0000
vn -0.0000 -1.0000 -0.0000
vn -0.0000 1.0000 -0.0000
vt 2.952729 -3.746567
vt 2.952729 4.746567
vt -1.952729 4.746567
vt -1.952729 -3.746567
s 0
usemtl Material.001
f 5/5/2 6/6/2 8/7/2 7/8/2
f 7/5/3 8/6/3 12/7/3 11/8/3
f 11/5/4 12/6/4 10/7/4 9/8/4
f 9/5/5 10/6/5 6/7/5 5/8/5
f 7/5/6 11/6/6 9/7/6 5/8/6
f 12/5/7 8/6/7 6/7/7 10/8/7
o Plane.001
v 0.288200 -0.400069 0.035782
v 3.366493 -0.400069 0.035782
v 0.288200 -0.400069 -2.789454
v 3.366493 -0.400069 -2.789454
vn -0.0000 1.0000 -0.0000
vt -1.503023 -2.683454
vt 2.503023 -2.683454
vt 2.503023 3.683454
vt -1.503023 3.683454
s 0
usemtl Material.003
f 13/9/8 14/10/8 16/11/8 15/12/8
o Cube.002
v 0.245907 -0.418533 -2.786799
v 0.245907 1.581467 -2.786799
v 0.245907 -0.418533 -2.971066
v 0.245907 1.581467 -2.971066
v 3.457063 -0.418533 -2.786799
v 3.457063 1.581467 -2.786799
v 3.457063 -0.418533 -2.971066
v 3.457063 1.581467 -2.971066
vn -1.0000 -0.0000 -0.0000
vn -0.0000 -0.0000 -1.0000
vn 1.0000 -0.0000 -0.0000
vn -0.0000 -0.0000 1.0000
vn -0.0000 -1.0000 -0.0000
vn -0.0000 1.0000 -0.0000
vt 3.376512 -3.664478
vt 3.376512 4.664478
vt -2.376512 4.664478
vt -2.376512 -3.664478
s 0
usemtl Material.004
f 17/13/9 18/14/9 20/15/9 19/16/9
f 19/13/10 20/14/10 24/15/10 23/16/10
f 23/13/11 24/14/11 22/15/11 21/16/11
f 21/13/12 22/14/12 18/15/12 17/16/12
f 19/13/13 23/14/13 21/15/13 17/16/13
f 24/13/14 20/14/14 18/15/14 22/16/14
o Cube.003
v 0.245907 -0.418533 0.176565
v 0.245907 1.581467 0.176565
v 0.245907 -0.418533 -0.007702
v 0.245907 1.581467 -0.007702
v 3.457063 -0.418533 0.176565
v 3.457063 1.581467 0.176565
v 3.457063 -0.418533 -0.007702
v 3.457063 1.581467 -0.007702
vn -1.0000 -0.0000 -0.0000
vn -0.0000 -0.0000 -1.0000
vn 1.0000 -0.0000 -0.0000
vn -0.0000 -0.0000 1.0000
vn -0.0000 -1.0000 -0.0000
vn -0.0000 1.0000 -0.0000
vt 3.376512 -3.664478
vt 3.376512 4.664478
vt -2.376512 4.664478
vt -2.376512 -3.664478
s 0
usemtl Material.005
f 25/17/15 26/18/15 28/19/15 27/20/15
f 27/17/16 28/18/16 32/19/16 31/20/16
f 31/17/17 32/18/17 30/19/17 29/20/17
f 29/17/18 30/18/18 26/19/18 25/20/18
f 27/17/19 31/18/19 29/19/19 25/20/19
f 32/17/20 28/18/20 26/19/20 30/20/20
o Plane.002
v 3.227978 -0.400069 0.035782
v 6.441488 -0.400069 0.035782
v 3.227978 -0.400069 -2.789454
v 6.441488 -0.400069 -2.789454
vn -0.0000 1.0000 -0.0000
vt -1.503023 -2.683454
vt 2.503023 -2.683454
vt 2.503023 3.683454
vt -1.503023 3.683454
s 0
usemtl Material.006
f 33/21/21 34/22/21 36/23/21 35/24/21
o Cube.001
v 3.253294 -0.418533 0.176565
v 3.253294 1.581467 0.176565
v 3.253294 -0.418533 -0.007702
v 3.253294 1.581467 -0.007702
v 6.464449 -0.418533 0.176565
v 6.464449 1.581467 0.176565
v 6.464449 -0.418533 -0.007702
v 6.464449 1.581467 -0.007702
vn -1.0000 -0.0000 -0.0000
vn -0.0000 -0.0000 -1.0000
vn 1.0000 -0.0000 -0.0000
vn -0.0000 -0.0000 1.0000
vn -0.0000 -1.0000 -0.0000
vn -0.0000 1.0000 -0.0000
vt 3.376512 -3.664478
vt 3.376512 4.664478
vt -2.376512 4.664478
vt -2.376512 -3.664478
s 0
usemtl Material.007
f 37/25/22 38/26/22 40/27/22 39/28/22
f 39/25/23 40/26/23 44/27/23 43/28/23
f 43/25/24 44/26/24 42/27/24 41/28/24
f 41/25/25 42/26/25 38/27/25 37/28/25
f 39/25/26 43/26/26 41/27/26 37/28/26
f 44/25/27 40/26/27 38/27/27 42/28/27
o Cube.004
v 3.253294 -0.418533 -2.786799
v 3.253294 1.581467 -2.786799
v 3.253294 -0.418533 -2.971066
v 3.253294 1.581467 -2.971066
v 6.464449 -0.418533 -2.786799
v 6.464449 1.581467 -2.786799
v 6.464449 -0.418533 -2.971066
v 6.464449 1.581467 -2.971066
vn -1.0000 -0.0000 -0.0000
vn -0.0000 -0.0000 -1.0000
vn 1.0000 -0.0000 -0.0000
vn -0.0000 -0.0000 1.0000
vn -0.0000 -1.0000 -0.0000
vn -0.0000 1.0000 -0.0000
vt 3.376512 -3.664478
vt 3.376512 4.664478
vt -2.376512 4.664478
vt -2.376512 -3.664478
s 0
usemtl Material.008
f 45/29/28 46/30/28 48/31/28 47/32/28
f 47/29/29 48/30/29 52/31/29 51/32/29
f 51/29/30 52/30/30 50/31/30 49/32/30
f 49/29/31 50/30/31 46/31/31 45/32/31
f 47/29/32 51/30/32 49/31/32 45/32/32
f 52/29/33 48/30/33 46/31/33 50/32/33
o Cube.005
v 3.313318 -0.397114 0.050081
v 3.313318 1.602886 0.050081
v 3.313318 -0.397114 -2.798758
v 3.313318 1.602886 -2.798758
v 3.362184 -0.397114 0.050081
v 3.362184 1.602886 0.050081
v 3.362184 -0.397114 -2.798758
v 3.362184 1.602886 -2.798758
vn -1.0000 -0.0000 -0.0000
vn -0.0000 -0.0000 -1.0000
vn 1.0000 -0.0000 -0.0000
vn -0.0000 -0.0000 1.0000
vn -0.0000 -1.0000 -0.0000
vn -0.0000 1.0000 -0.0000
vt 2.952729 -3.746567
vt 2.952729 4.746567
vt -1.952729 4.746567
vt -1.952729 -3.746567
s 0
usemtl Material.009
f 53/33/34 54/34/34 56/35/34 55/36/34
f 55/33/35 56/34/35 60/35/35 59/36/35
f 59/33/36 60/34/36 58/35/36 57/36/36
f 57/33/37 58/34/37 54/35/37 53/36/37
f 55/33/38 59/34/38 57/35/38 53/36/38
f 60/33/39 56/34/39 54/35/39 58/36/39
o Plane.003
v 6.331710 -0.400069 0.035782
v 9.322736 -0.400069 0.035782
v 6.331710 -0.400069 -2.789454
v 9.322736 -0.400069 -2.789454
vn -0.0000 1.0000 -0.0000
vt -1.503023 -2.683454
vt 2.503023 -2.683454
vt 2.503023 3.683454
vt -1.503023 3.683454
s 0
usemtl Material.010
f 61/37/40 62/38/40 64/39/40 63/40/40
o Cube.006
v 6.417203 -0.402789 0.058165
v 6.417203 1.608562 0.058165
v 6.417203 -0.402789 -2.806842
v 6.417203 1.608562 -2.806842
v 6.456670 -0.402789 0.058165
v 6.456670 1.608562 0.058165
v 6.456670 -0.402789 -2.806842
v 6.456670 1.608562 -2.806842
vn -1.0000 -0.0000 -0.0000
vn -0.0000 -0.0000 -1.0000
vn 1.0000 -0.0000 -0.0000
vn -0.0000 -0.0000 1.0000
vn -0.0000 -1.0000 -0.0000
vn -0.0000 1.0000 -0.0000
vt 2.952729 -3.746567
vt 2.952729 4.746567
vt -1.952729 4.746567
vt -1.952729 -3.746567
s 0
usemtl Material.011
f 65/41/41 66/42/41 68/43/41 67/44/41
f 67/41/42 68/42/42 72/43/42 71/44/42
f 69/41/44 70/42/44 66/43/44 65/44/44
f 67/41/45 71/42/45 69/43/45 65/44/45
f 72/41/46 68/42/46 66/43/46 70/44/46
usemtl Material.015
f 71/41/43 72/42/43 70/43/43 69/44/43
o Cube.007
v 6.245783 -0.418533 -2.786799
v 6.245783 1.581467 -2.786799
v 6.245783 -0.418533 -2.971066
v 6.245783 1.581467 -2.971066
v 9.456939 -0.418533 -2.786799
v 9.456939 1.581467 -2.786799
v 9.456939 -0.418533 -2.971066
v 9.456939 1.581467 -2.971066
vn -1.0000 -0.0000 -0.0000
vn -0.0000 -0.0000 -1.0000
vn 1.0000 -0.0000 -0.0000
vn -0.0000 -0.0000 1.0000
vn -0.0000 -1.0000 -0.0000
vn -0.0000 1.0000 -0.0000
vt 3.376512 -3.664478
vt 3.376512 4.664478
vt -2.376512 4.664478
vt -2.376512 -3.664478
s 0
usemtl Material.012
f 73/45/47 74/46/47 76/47/47 75/48/47
f 75/45/48 76/46/48 80/47/48 79/48/48
f 79/45/49 80/46/49 78/47/49 77/48/49
f 77/45/50 78/46/50 74/47/50 73/48/50
f 75/45/51 79/46/51 77/47/51 73/48/51
f 80/45/52 76/46/52 74/47/52 78/48/52
o Cube.008
v 6.245783 -0.418533 0.176565
v 6.245783 1.581467 0.176565
v 6.245783 -0.418533 -0.007702
v 6.245783 1.581467 -0.007702
v 9.456939 -0.418533 0.176565
v 9.456939 1.581467 0.176565
v 9.456939 -0.418533 -0.007702
v 9.456939 1.581467 -0.007702
vn -1.0000 -0.0000 -0.0000
vn -0.0000 -0.0000 -1.0000
vn 1.0000 -0.0000 -0.0000
vn -0.0000 -0.0000 1.0000
vn -0.0000 -1.0000 -0.0000
vn -0.0000 1.0000 -0.0000
vt 3.376512 -3.664478
vt 3.376512 4.664478
vt -2.376512 4.664478
vt -2.376512 -3.664478
s 0
usemtl Material.013
f 81/49/53 82/50/53 84/51/53 83/52/53
f 83/49/54 84/50/54 88/51/54 87/52/54
f 87/49/55 88/50/55 86/51/55 85/52/55
f 85/49/56 86/50/56 82/51/56 81/52/56
f 83/49/57 87/50/57 85/51/57 81/52/57
f 88/49/58 84/50/58 82/51/58 86/52/58
o Cube.009
v 9.244409 -0.448028 0.050081
v 9.244409 1.551972 0.050081
v 9.244409 -0.448028 -2.798758
v 9.244409 1.551972 -2.798758
v 9.449176 -0.448028 0.050081
v 9.449176 1.551972 0.050081
v 9.449176 -0.448028 -2.798758
v 9.449176 1.551972 -2.798758
vn -1.0000 -0.0000 -0.0000
vn -0.0000 -0.0000 -1.0000
vn 1.0000 -0.0000 -0.0000
vn -0.0000 -0.0000 1.0000
vn -0.0000 -1.0000 -0.0000
vn -0.0000 1.0000 -0.0000
vt 2.952729 -3.746567
vt 2.952729 4.746567
vt -1.952729 4.746567
vt -1.952729 -3.746567
s 0
usemtl Material.014
f 89/53/59 90/54/59 92/55/59 91/56/59
f 91/53/60 92/54/60 96/55/60 95/56/60
f 95/53/61 96/54/61 94/55/61 93/56/61
f 93/53/62 94/54/62 90/55/62 89/56/62
f 91/53/63 95/54/63 93/55/63 89/56/63
f 96/53/64 92/54/64 90/55/64 94/56/64
