# Blender 4.0.0
# www.blender.org
mtllib dc.mtl
o Plane
v -5.932274 0.000000 5.932274
v 5.932274 0.000000 5.932274
v -5.932274 0.000000 -5.932274
v 5.932274 0.000000 -5.932274
vn -0.0000 1.0000 -0.0000
vt 6.382942 6.382942
vt -5.382942 6.382942
vt -5.382942 -5.382942
vt 6.382942 -5.382942
s 0
usemtl Material.001
f 1/1/1 2/2/1 4/3/1 3/4/1
o Cube
v 0.795493 -0.018560 -2.620036
v 2.149982 -0.018560 -1.360524
v 2.149982 1.981440 -1.360524
v 0.795493 1.981440 -2.620036
v -2.149982 -0.018560 -1.360524
v -0.795493 -0.018560 -2.620036
v -0.795493 1.981440 -2.620036
v -2.149982 1.981440 -1.360524
v -0.795493 -0.018560 1.378413
v -2.149982 -0.018560 0.118902
v -2.149982 1.981440 0.118902
v -0.795493 1.981440 1.378413
v 2.149982 -0.018560 0.118902
v 0.795493 -0.018560 1.378413
v 0.795493 1.981440 1.378413
v 2.149982 1.981440 0.118902
vn -0.0000 -0.0000 -1.0000
vn -0.0000 -1.0000 -0.0000
vn -0.0000 1.0000 -0.0000
vn 0.6810 -0.0000 -0.7323
vn 1.0000 -0.0000 -0.0000
vn -0.6810 -0.0000 -0.7323
vn -0.6810 -0.0000 0.7323
vn -1.0000 -0.0000 -0.0000
vn 0.6810 -0.0000 0.7323
vn -0.0000 -0.0000 1.0000
vt 0.000000 0.315000
vt 1.000000 0.315000
vt 1.000000 0.685000
vt 0.000000 0.685000
vt 0.315000 0.000000
vt 0.685000 0.000000
vt 0.685000 1.000000
vt 0.315000 1.000000
vt 0.000000 0.000000
vt 1.000000 0.000000
vt 1.000000 1.000000
vt 0.000000 1.000000
s 0
usemtl Material.002
f 10/5/2 11/6/2 8/7/2 5/8/2
f 9/5/3 10/9/3 5/10/3 6/6/3 17/7/3 18/11/3 13/12/3 14/8/3
f 7/5/4 8/9/4 11/10/4 12/6/4 15/7/4 16/11/4 19/12/4 20/8/4
f 7/6/5 6/5/5 5/13/5 8/14/5
f 6/5/6 7/6/6 20/7/6 17/8/6
f 11/15/7 10/16/7 9/8/7 12/7/7
f 13/8/8 16/7/8 15/15/8 14/16/8
f 14/5/9 15/6/9 12/7/9 9/8/9
f 19/15/10 18/16/10 17/8/10 20/7/10
f 18/5/11 19/6/11 16/7/11 13/8/11
o Cube.001
v 0.520005 1.958885 -1.927680
v 1.405418 1.958885 -1.104353
v 1.405418 3.266261 -1.104353
v 0.520005 3.266261 -1.927680
v -1.405418 1.958885 -1.104353
v -0.520005 1.958885 -1.927680
v -0.520005 3.266261 -1.927680
v -1.405418 3.266261 -1.104353
v -0.520005 1.958885 0.686058
v -1.405418 1.958885 -0.137270
v -1.405418 3.266261 -0.137270
v -0.520005 3.266261 0.686058
v 1.405418 1.958885 -0.137270
v 0.520005 1.958885 0.686058
v 0.520005 3.266261 0.686058
v 1.405418 3.266261 -0.137270
vn -0.0000 -0.0000 -1.0000
vn -0.0000 -1.0000 -0.0000
vn -0.0000 1.0000 -0.0000
vn 0.6810 -0.0000 -0.7323
vn 1.0000 -0.0000 -0.0000
vn -0.6810 -0.0000 -0.7323
vn -0.6810 -0.0000 0.7323
vn -1.0000 -0.0000 -0.0000
vn 0.6810 -0.0000 0.7323
vn -0.0000 -0.0000 1.0000
vt 0.000000 0.315000
vt 1.000000 0.315000
vt 1.000000 0.685000
vt 0.000000 0.685000
vt 0.315000 0.000000
vt 0.685000 0.000000
vt 0.685000 1.000000
vt 0.315000 1.000000
vt 0.000000 0.000000
vt 1.000000 0.000000
vt 1.000000 1.000000
vt 0.000000 1.000000
s 0
usemtl Material.003
f 26/17/12 27/18/12 24/19/12 21/20/12
f 25/17/13 26/21/13 21/22/13 22/18/13 33/19/13 34/23/13 29/24/13 30/20/13
f 23/17/14 24/21/14 27/22/14 28/18/14 31/19/14 32/23/14 35/24/14 36/20/14
f 23/18/15 22/17/15 21/25/15 24/26/15
f 22/17/16 23/18/16 36/19/16 33/20/16
f 27/27/17 26/28/17 25/20/17 28/19/17
f 29/20/18 32/19/18 31/27/18 30/28/18
f 30/17/19 31/18/19 28/19/19 25/20/19
f 35/27/20 34/28/20 33/20/20 36/19/20
f 34/17/21 35/18/21 32/19/21 29/20/21
