# Blender v2.76 (sub 0) OBJ File: 'eyerok.blend'
# www.blender.org
mtllib eyerok.mtl
o Cube.005_Cube.006
v -3.063696 -0.323488 0.672511
v -3.063696 0.126560 0.672511
v -3.063696 -0.323488 -1.327489
v -3.063696 0.126560 -1.327489
v -2.407149 -0.323488 0.672511
v -2.407149 0.126560 0.672511
v -2.407149 -0.323488 -1.327489
v -2.407149 0.126560 -1.327489
vt -1.239122 -1.239122
vt 2.239122 -1.239122
vt 2.239122 2.239122
vt -1.239122 2.239122
vn -1.000000 0.000000 0.000000
vn 0.000000 0.000000 -1.000000
vn 1.000000 0.000000 0.000000
vn 0.000000 0.000000 1.000000
vn 0.000000 -1.000000 -0.000000
vn 0.000000 1.000000 0.000000
usemtl None
s off
f 2/1/1 4/2/1 3/3/1 1/4/1
f 4/1/2 8/2/2 7/3/2 3/4/2
f 8/1/3 6/2/3 5/3/3 7/4/3
f 6/1/4 2/2/4 1/3/4 5/4/4
f 1/1/5 3/2/5 7/3/5 5/4/5
f 6/1/6 8/2/6 4/3/6 2/4/6
o Cube.001_Cube.002
v -3.142178 -0.296443 3.059224
v -3.142178 2.920475 3.059224
v -3.142178 -0.296443 -3.044306
v -3.142178 2.920475 -3.044306
v -3.030298 -0.296443 3.059224
v -3.030298 2.920475 3.059224
v -3.030298 -0.296443 -3.044306
v -3.030298 2.920475 -3.044306
vt -2.549384 -2.549384
vt 3.549384 -2.549384
vt 3.549384 3.549384
vt -2.549384 3.549384
vn -1.000000 0.000000 0.000000
vn -0.000000 0.000000 -1.000000
vn 1.000000 0.000000 0.000000
vn 0.000000 0.000000 1.000000
vn 0.000000 -1.000000 -0.000000
vn 0.000000 1.000000 0.000000
usemtl None_2D19287B_c.bmp
s off
f 10/5/7 12/6/7 11/7/7 9/8/7
f 12/5/8 16/6/8 15/7/8 11/8/8
f 16/5/9 14/6/9 13/7/9 15/8/9
f 14/5/10 10/6/10 9/7/10 13/8/10
f 9/5/11 11/6/11 15/7/11 13/8/11
f 14/5/12 16/6/12 12/7/12 10/8/12
o Cube_Cube.001
v -3.032903 -0.445138 3.032903
v -3.032903 -0.313965 3.032903
v -3.032903 -0.445138 -3.032903
v -3.032903 -0.313965 -3.032903
v 3.032903 -0.445138 3.032903
v 3.032903 -0.313965 3.032903
v 3.032903 -0.445138 -3.032903
v 3.032903 -0.313965 -3.032903
vt -2.378031 -2.378031
vt 3.378031 -2.378031
vt 3.378031 3.378031
vt -2.378031 3.378031
vn -1.000000 0.000000 0.000000
vn -0.000000 0.000000 -1.000000
vn 1.000000 0.000000 0.000000
vn 0.000000 0.000000 1.000000
vn 0.000000 -1.000000 -0.000000
vn 0.000000 1.000000 -0.000000
usemtl None_2D19287B_c.bmp
s off
f 18/9/13 20/10/13 19/11/13 17/12/13
f 20/9/14 24/10/14 23/11/14 19/12/14
f 24/9/15 22/10/15 21/11/15 23/12/15
f 22/9/16 18/10/16 17/11/16 21/12/16
f 17/9/17 19/10/17 23/11/17 21/12/17
f 22/9/18 24/10/18 20/11/18 18/12/18
o Cube.002_Cube.003
v 3.019346 -0.296443 3.059224
v 3.019346 2.920475 3.059224
v 3.019346 -0.296443 -3.044306
v 3.019346 2.920475 -3.044306
v 3.131226 -0.296443 3.059224
v 3.131226 2.920475 3.059224
v 3.131226 -0.296443 -3.044306
v 3.131226 2.920475 -3.044306
vt -2.549384 -2.549384
vt 3.549384 -2.549384
vt 3.549384 3.549384
vt -2.549384 3.549384
vn -1.000000 -0.000000 0.000000
vn -0.000000 0.000000 -1.000000
vn 1.000000 -0.000000 0.000000
vn 0.000000 0.000000 1.000000
vn 0.000000 -1.000000 -0.000000
vn 0.000000 1.000000 0.000000
usemtl None_2D19287B_c.bmp.001
s off
f 26/13/19 28/14/19 27/15/19 25/16/19
f 28/13/20 32/14/20 31/15/20 27/16/20
f 32/13/21 30/14/21 29/15/21 31/16/21
f 30/13/22 26/14/22 25/15/22 29/16/22
f 25/13/23 27/14/23 31/15/23 29/16/23
f 30/13/24 32/14/24 28/15/24 26/16/24
o Cube.003_Cube.004
v -3.027299 -0.296443 -3.044099
v -3.027299 2.920475 -3.044099
v -3.027299 -0.296443 -3.163975
v -3.027299 2.920475 -3.163975
v 3.041701 -0.296443 -3.044099
v 3.041701 2.920475 -3.044099
v 3.041701 -0.296443 -3.163975
v 3.041701 2.920475 -3.163975
vt -2.549384 -2.549384
vt 3.549384 -2.549384
vt 3.549384 3.549384
vt -2.549384 3.549384
vn -1.000000 0.000000 0.000000
vn 0.000000 0.000000 -1.000000
vn 1.000000 -0.000000 0.000000
vn -0.000000 0.000000 1.000000
vn 0.000000 -1.000000 0.000000
vn 0.000000 1.000000 -0.000000
usemtl None
s off
f 34/17/25 36/18/25 35/19/25 33/20/25
f 36/17/26 40/18/26 39/19/26 35/20/26
f 40/17/27 38/18/27 37/19/27 39/20/27
f 38/17/28 34/18/28 33/19/28 37/20/28
f 33/17/29 35/18/29 39/19/29 37/20/29
f 38/17/30 40/18/30 36/19/30 34/20/30
o Cube.004_Cube.005
v -3.027299 -0.296443 3.140160
v -3.027299 2.920475 3.140160
v -3.027299 -0.296443 3.020284
v -3.027299 2.920475 3.020284
v 3.041701 -0.296443 3.140160
v 3.041701 2.920475 3.140160
v 3.041701 -0.296443 3.020284
v 3.041701 2.920475 3.020284
vt -2.549384 -2.549384
vt 3.549384 -2.549384
vt 3.549384 3.549384
vt -2.549384 3.549384
vn -1.000000 0.000000 0.000000
vn 0.000000 0.000000 -1.000000
vn 1.000000 -0.000000 0.000000
vn -0.000000 0.000000 1.000000
vn 0.000000 -1.000000 0.000000
vn 0.000000 1.000000 -0.000000
usemtl None_2D19287B_c.bmp.003
s off
f 42/21/31 44/22/31 43/23/31 41/24/31
f 44/21/32 48/22/32 47/23/32 43/24/32
f 48/21/33 46/22/33 45/23/33 47/24/33
f 46/21/34 42/22/34 41/23/34 45/24/34
f 41/21/35 43/22/35 47/23/35 45/24/35
f 46/21/36 48/22/36 44/23/36 42/24/36
o Cube.006_Cube.007
v -3.032903 2.906798 3.032903
v -3.032903 3.037971 3.032903
v -3.032903 2.906798 -3.032903
v -3.032903 3.037971 -3.032903
v 3.032903 2.906798 3.032903
v 3.032903 3.037971 3.032903
v 3.032903 2.906798 -3.032903
v 3.032903 3.037971 -3.032903
vt -2.378031 -2.378031
vt 3.378031 -2.378031
vt 3.378031 3.378031
vt -2.378031 3.378031
vn -1.000000 0.000000 0.000000
vn -0.000000 0.000000 -1.000000
vn 1.000000 0.000000 0.000000
vn 0.000000 0.000000 1.000000
vn 0.000000 -1.000000 0.000000
vn 0.000000 1.000000 -0.000000
usemtl None_2D19287B_c.bmp.004
s off
f 50/25/37 52/26/37 51/27/37 49/28/37
f 52/25/38 56/26/38 55/27/38 51/28/38
f 56/25/39 54/26/39 53/27/39 55/28/39
f 54/25/40 50/26/40 49/27/40 53/28/40
f 49/25/41 51/26/41 55/27/41 53/28/41
f 54/25/42 56/26/42 52/27/42 50/28/42
