# Blender v2.76 (sub 0) OBJ File: 'ccf2.blend'
# www.blender.org
mtllib ccf2.mtl
o Cube
v -0.580364 0.300273 -0.721493
v -0.580364 0.300273 0.721493
v -0.708486 0.300273 0.721493
v -0.708485 0.300273 -0.721493
v -0.580363 1.743259 -0.721492
v -0.580364 1.743259 0.721493
v -0.708486 1.743259 0.721492
v -0.708486 1.743259 -0.721493
vt 1.002182 0.002192
vt 0.997808 1.002182
vt -0.002182 0.997808
vt 0.002192 -0.002182
vn 0.000000 -1.000000 -0.000000
vn 0.000000 1.000000 0.000000
vn 1.000000 0.000000 0.000000
vn -0.000000 -0.000000 1.000000
vn -1.000000 -0.000000 -0.000000
vn 0.000000 0.000000 -1.000000
usemtl Material
s off
f 1/1/1 2/2/1 3/3/1 4/4/1
f 5/1/2 8/2/2 7/3/2 6/4/2
f 1/1/3 5/2/3 6/3/3 2/4/3
f 2/1/4 6/2/4 7/3/4 3/4/4
f 3/1/5 7/2/5 8/3/5 4/4/5
f 5/1/6 1/2/6 4/3/6 8/4/6
