# Blender v2.76 (sub 0) OBJ File: ''
# www.blender.org
mtllib ccf_painting_lol_so_funny.mtl
o Cube.001_Cube.002
v -1.424244 0.284348 1.424244
v -1.424244 1.692211 1.424244
v -1.424244 0.284348 -1.424244
v -1.424244 1.692211 -1.424244
v -1.412017 0.284348 1.424244
v -1.412017 1.692211 1.424244
v -1.412017 0.284348 -1.424244
v -1.412017 1.692211 -1.424244
v -1.424244 1.669397 1.424244
v -1.424244 3.077261 1.424244
v -1.424244 1.669397 -1.424244
v -1.424244 3.077261 -1.424244
v -1.412017 1.669397 1.424244
v -1.412017 3.077261 1.424244
v -1.412017 1.669397 -1.424244
v -1.412017 3.077261 -1.424244
vt 0.999831 1.000676
vt -0.000169 0.999323
vt 0.000169 -0.000676
vt 1.000169 0.000677
vt 1.000599 0.997597
vt 0.000602 1.002400
vt -0.000599 0.002403
vt 0.999398 -0.002400
vn -1.000000 0.000000 0.000000
vn 0.000000 0.000000 -1.000000
vn 1.000000 0.000000 0.000000
vn -0.000000 0.000000 1.000000
vn 0.000000 -1.000000 0.000000
vn 0.000000 1.000000 -0.000000
usemtl None
s off
f 10/1/1 12/2/1 11/3/1 9/4/1
f 12/1/2 16/2/2 15/3/2 11/4/2
f 16/1/3 14/2/3 13/3/3 15/4/3
f 14/1/4 10/2/4 9/3/4 13/4/4
f 9/1/5 11/2/5 15/3/5 13/4/5
f 14/1/6 16/2/6 12/3/6 10/4/6
usemtl None_ccfPainting2.png
f 2/5/1 4/6/1 3/7/1 1/8/1
f 4/5/2 8/6/2 7/7/2 3/8/2
f 8/5/3 6/6/3 5/7/3 7/8/3
f 6/5/4 2/6/4 1/7/4 5/8/4
f 1/5/5 3/6/5 7/7/5 5/8/5
f 6/5/6 8/6/6 4/7/6 2/8/6
